<?xml version="1.0" standalone="no"?>
<!DOCTYPE svg PUBLIC "-//W3C//DTD SVG 20010904//EN"
 "http://www.w3.org/TR/2001/REC-SVG-20010904/DTD/svg10.dtd">
<svg version="1.0" xmlns="http://www.w3.org/2000/svg"
 width="980.000000pt" height="980.000000pt" viewBox="0 0 980.000000 980.000000"
 preserveAspectRatio="xMidYMid meet">

<g transform="translate(0.000000,980.000000) scale(0.100000,-0.100000)"
fill="#000000" stroke="none">
<path d="M4890 8881 c0 -5 -27 -42 -60 -83 -33 -40 -58 -79 -55 -86 3 -7 1
-10 -5 -7 -13 8 -23 -57 -15 -94 3 -16 19 -48 35 -70 l29 -40 -52 -24 c-61
-28 -150 -104 -140 -119 3 -7 1 -8 -6 -4 -18 11 -61 -90 -61 -145 0 -81 6 -84
150 -64 132 19 319 17 433 -5 62 -12 94 -2 83 27 -3 7 0 13 6 13 7 0 9 15 5
45 -8 58 -34 118 -47 110 -5 -3 -7 0 -5 7 9 22 -73 96 -142 130 -65 32 -74 42
-47 52 9 4 14 13 10 21 -3 8 0 14 6 12 14 -2 37 55 37 93 1 14 -8 43 -20 64
-27 51 -110 147 -120 140 -5 -3 -6 1 -3 9 3 8 1 18 -5 22 -6 3 -11 2 -11 -4z
m99 -461 c73 -14 139 -49 174 -93 34 -41 30 -62 -6 -30 -32 29 -66 45 -83 39
-8 -3 -13 -2 -10 3 3 4 -19 12 -48 18 -54 9 -54 9 -46 -13 10 -26 7 -53 -11
-86 -7 -13 -13 -26 -12 -29 1 -3 -16 -5 -38 -5 -57 1 -93 43 -86 98 6 43 7 42
-65 27 -65 -14 -122 -42 -141 -70 -9 -12 -18 -16 -21 -10 -8 13 55 84 98 111
71 43 191 60 295 40z"/>
<path d="M5526 8408 c-9 -12 -16 -39 -16 -60 0 -43 -2 -44 -59 -23 -22 8 -64
18 -93 24 -51 9 -51 9 -29 -9 13 -9 58 -34 100 -55 42 -21 107 -55 144 -77 38
-21 74 -35 80 -31 7 3 9 3 5 -2 -11 -11 60 -58 74 -49 6 4 8 3 5 -4 -8 -12 72
-74 85 -66 5 3 7 2 6 -3 -4 -10 224 -238 235 -235 5 1 5 -2 2 -9 -4 -6 4 -23
17 -37 13 -15 42 -53 63 -85 27 -40 41 -54 47 -45 5 9 7 7 6 -7 -2 -11 25 -76
59 -145 67 -134 108 -260 124 -380 13 -100 12 -317 -1 -409 -6 -41 -9 -74 -8
-75 2 -1 13 -7 26 -14 27 -15 25 -17 47 86 8 40 15 100 15 133 0 52 2 59 20
59 29 0 101 31 94 41 -3 5 1 7 8 4 26 -9 108 87 108 126 0 26 -39 49 -85 49
-68 0 -105 -40 -120 -127 -4 -24 -10 -43 -15 -43 -4 0 -10 33 -14 73 -4 39 -9
79 -12 88 -3 10 8 21 35 32 42 19 83 66 107 122 21 51 18 82 -10 100 -50 33
-146 -21 -146 -81 0 -39 -18 -37 -30 3 -23 84 -24 110 -2 117 46 15 111 140
98 191 -4 14 -17 32 -31 41 -49 32 -135 -23 -135 -87 0 -43 -13 -35 -41 24
l-25 54 43 37 c31 27 47 51 57 87 22 72 8 99 -50 99 -42 0 -81 -33 -95 -81 -7
-21 -15 -39 -18 -39 -3 0 -17 16 -30 35 l-24 35 28 22 c47 37 73 136 43 166
-32 32 -110 0 -129 -53 -7 -19 -16 -35 -19 -35 -4 0 -16 11 -29 25 l-22 26 35
34 c61 59 59 155 -3 155 -42 0 -82 -38 -90 -84 l-6 -37 -40 41 c-22 23 -35 41
-30 40 25 -5 37 1 31 16 -3 8 -2 12 4 9 24 -15 41 100 18 123 -13 13 -67 16
-84 4 -22 -15 -44 -58 -44 -84 0 -34 -3 -35 -39 -2 l-29 26 24 35 c31 45 32
103 3 128 -19 18 -21 18 -54 1 -37 -20 -58 -58 -51 -93 7 -34 -15 -27 -83 23
-2 2 6 15 18 30 23 30 28 93 9 112 -20 20 -65 14 -82 -10z m252 -133 c-3 -3
-9 2 -12 12 -6 14 -5 15 5 6 7 -7 10 -15 7 -18z"/>
<path d="M4121 8381 c-26 -26 -27 -66 -1 -116 11 -21 19 -39 17 -40 -1 -1 -17
-12 -34 -24 -18 -12 -33 -21 -34 -19 -1 2 -2 16 -4 32 -3 35 -46 76 -80 76
-28 0 -55 -34 -55 -69 0 -14 9 -44 21 -68 l21 -43 -24 -20 c-33 -28 -48 -25
-48 10 0 34 -28 66 -64 76 -63 16 -92 -51 -57 -131 15 -34 25 -46 36 -41 13 5
14 2 1 -22 -8 -15 -26 -38 -40 -51 -27 -26 -32 -22 -38 29 -4 33 -63 66 -101
56 -39 -9 -55 -73 -32 -132 9 -23 23 -48 31 -54 21 -19 17 -42 -16 -80 l-29
-35 -1 32 c0 67 -85 122 -137 88 -43 -29 -25 -122 35 -179 17 -15 35 -25 42
-21 6 4 4 -10 -6 -32 -9 -21 -21 -50 -27 -65 -14 -35 -27 -36 -27 -3 0 54 -28
86 -86 99 -95 21 -105 -119 -15 -212 18 -19 38 -31 46 -29 13 6 11 -9 -14
-100 -13 -48 -31 -57 -31 -17 0 15 -12 38 -29 55 -24 23 -38 29 -75 29 -58 0
-77 -18 -66 -64 10 -45 44 -102 58 -99 6 2 9 -3 6 -11 -3 -8 13 -25 44 -44
l48 -30 -7 -58 c-4 -33 -8 -72 -8 -87 -1 -43 -18 -23 -25 30 -10 75 -51 113
-121 113 -41 0 -85 -25 -85 -48 0 -30 49 -99 89 -125 35 -23 108 -48 129 -43
4 0 10 -39 13 -89 6 -91 27 -205 38 -205 3 0 16 8 28 18 22 17 22 17 7 122
-27 181 -3 425 57 598 35 100 109 243 179 347 27 40 46 76 42 80 -4 4 -2 5 4
3 14 -4 85 87 76 98 -4 4 -2 4 4 1 14 -8 47 26 37 37 -5 4 -3 6 3 4 14 -4 167
139 154 145 -6 3 -5 4 2 3 19 -4 69 34 62 46 -4 7 -2 8 5 4 7 -4 45 14 89 42
42 27 141 81 219 120 78 39 144 75 147 80 3 5 -23 3 -57 -5 -92 -21 -128 -34
-122 -44 4 -5 0 -6 -8 -4 -7 3 -30 -1 -50 -10 l-37 -15 0 39 c0 68 -60 111
-99 72z"/>
<path d="M4740 8090 c-47 -5 -125 -21 -174 -35 -101 -29 -282 -117 -278 -135
1 -6 -2 -9 -8 -5 -12 7 -71 -35 -64 -47 3 -4 10 -5 16 -2 7 4 8 2 4 -5 -6 -9
-11 -9 -21 -1 -10 9 -27 -1 -72 -41 -32 -29 -64 -58 -71 -64 -7 -5 -41 -45
-76 -87 -121 -146 -209 -327 -242 -494 -24 -118 -24 -330 0 -434 9 -41 19 -87
23 -102 l6 -28 -58 0 c-32 0 -88 -5 -124 -11 -78 -14 -64 -23 51 -33 135 -12
245 -55 322 -126 24 -22 46 -36 50 -32 4 4 6 3 5 -3 -2 -5 11 -39 28 -75 18
-36 44 -110 58 -165 28 -107 46 -293 28 -282 -6 4 -14 28 -18 54 -4 27 -19 81
-35 120 -45 118 -157 282 -181 267 -5 -3 -8 0 -7 8 2 7 -3 12 -10 10 -8 -1
-11 2 -7 7 8 14 -80 77 -142 100 -28 11 -90 26 -137 33 -145 21 -325 -16 -464
-94 l-54 -30 42 -24 c23 -13 46 -21 51 -18 5 3 8 2 7 -3 -1 -4 24 -35 55 -67
81 -84 130 -188 157 -335 22 -117 43 -176 60 -166 6 3 7 0 5 -8 -7 -16 33 -69
46 -62 5 4 6 0 4 -7 -3 -8 37 -59 90 -117 136 -149 182 -251 156 -348 -10 -37
-19 -46 -94 -90 -45 -27 -82 -54 -82 -60 0 -6 -4 -15 -9 -20 -5 -5 -6 -3 -2 5
16 28 -14 8 -82 -54 -40 -36 -69 -71 -66 -76 4 -7 2 -8 -4 -4 -13 8 -114 -113
-105 -127 3 -6 1 -7 -5 -3 -13 8 -96 -128 -153 -248 -21 -46 -39 -86 -39 -89
0 -3 17 1 37 9 23 10 50 14 72 10 20 -4 44 -7 53 -8 9 -1 16 -5 15 -8 0 -3 16
-23 36 -45 44 -46 90 -137 85 -168 -3 -20 -5 -19 -40 12 -22 19 -42 29 -49 25
-7 -4 -9 -3 -6 3 9 15 -49 67 -64 58 -8 -5 -10 -4 -5 4 9 14 -51 41 -94 41
-40 0 -64 -13 -88 -48 l-20 -27 71 3 c68 3 75 1 132 -33 89 -54 125 -92 125
-132 0 -47 -16 -44 -156 28 -116 60 -120 61 -186 57 -37 -3 -65 -1 -63 2 7 12
-33 43 -45 35 -6 -3 -9 -2 -8 3 4 14 -91 84 -104 76 -6 -4 -8 -3 -5 3 6 9 -96
118 -111 118 -4 0 -6 3 -5 7 2 5 -78 119 -103 147 -2 2 -21 -12 -43 -32 -22
-19 -36 -39 -33 -43 4 -4 2 -4 -5 0 -7 4 -23 0 -35 -8 -73 -47 -226 -58 -296
-22 -42 22 -42 14 3 -111 79 -218 194 -414 343 -586 85 -98 113 -122 127 -109
3 4 5 0 3 -8 -2 -8 3 -14 10 -12 8 1 11 -2 8 -6 -3 -5 3 -17 14 -27 18 -16 19
-15 36 17 9 18 32 55 51 81 18 26 31 53 27 60 -4 7 -4 9 1 5 4 -4 35 17 67 48
69 63 146 105 250 134 79 23 229 37 272 26 l27 -7 -18 -30 c-23 -40 -34 -45
-118 -53 -194 -19 -355 -92 -468 -211 -44 -47 -88 -118 -82 -133 2 -7 1 -11
-4 -8 -22 14 -61 -139 -61 -244 0 -123 45 -251 115 -329 41 -45 43 -43 -54
-61 -79 -14 -191 -53 -251 -87 -64 -36 -131 -93 -124 -104 3 -5 0 -8 -8 -7 -7
2 -12 -3 -10 -10 1 -8 -1 -11 -6 -8 -23 14 -104 -110 -138 -210 -23 -68 -27
-95 -27 -194 1 -95 5 -128 26 -192 28 -87 73 -171 87 -163 6 3 7 -1 4 -9 -3
-9 22 -43 68 -92 148 -156 322 -268 556 -359 389 -150 780 -133 1070 48 35 22
59 43 55 49 -4 7 -1 8 7 3 16 -10 174 151 166 171 -3 7 -1 13 5 11 13 -3 170
254 164 270 -2 7 0 12 5 10 4 -1 27 25 50 57 l41 59 -95 -88 c-53 -48 -93 -92
-89 -98 3 -6 1 -7 -5 -3 -14 8 -193 -154 -185 -167 3 -6 1 -7 -5 -4 -5 4 -28
-8 -50 -26 -22 -18 -62 -48 -91 -66 -28 -18 -48 -38 -44 -44 3 -5 1 -7 -5 -4
-5 4 -52 -13 -104 -38 -152 -72 -249 -96 -419 -102 -147 -6 -259 2 -259 16 0
5 30 11 68 14 187 14 417 116 608 269 58 47 82 70 52 52 -7 -4 -8 -3 -4 5 4 6
11 9 15 7 9 -6 94 78 92 90 -1 5 4 9 9 9 6 0 38 25 73 56 34 30 76 66 94 79
18 13 30 27 27 31 -3 5 3 6 12 2 12 -4 15 -3 10 5 -4 8 -2 10 7 6 8 -3 18 -1
21 5 10 16 133 70 195 87 31 8 79 14 107 14 29 0 64 4 78 10 17 6 26 6 26 0 0
-6 -38 -86 -84 -179 -75 -150 -136 -284 -136 -300 0 -3 25 39 55 93 30 54 52
103 48 109 -3 6 -1 7 5 3 11 -7 75 77 67 88 -3 3 -2 4 1 1 4 -2 35 22 69 54
60 56 186 136 205 129 5 -2 -4 -18 -20 -37 -16 -18 -27 -38 -23 -44 3 -5 2 -7
-4 -4 -13 8 -56 -50 -47 -65 4 -6 3 -8 -4 -4 -14 8 -54 -51 -127 -189 -32 -60
-62 -116 -67 -122 -6 -7 -7 -21 -4 -30 4 -10 4 -14 0 -10 -4 4 -46 -68 -93
-160 -100 -196 -112 -214 -205 -312 -100 -104 -218 -179 -321 -205 l-30 -8 35
-14 c61 -26 193 -54 256 -54 122 0 213 49 269 144 13 23 43 109 65 191 23 82
57 183 76 223 18 41 31 79 27 85 -3 6 -1 7 5 3 13 -8 46 50 37 65 -4 5 -1 8 7
7 7 -2 12 5 11 15 0 10 2 16 5 13 9 -10 53 63 46 76 -4 6 -3 8 2 5 6 -3 25 20
44 51 18 31 51 83 72 115 21 32 35 63 32 69 -4 6 -2 8 3 5 11 -7 49 41 45 55
-1 5 2 7 7 5 6 -1 30 21 55 48 39 43 45 47 46 28 0 -35 -59 -211 -97 -288 -20
-38 -71 -130 -115 -202 -44 -75 -76 -138 -72 -145 4 -7 3 -8 -4 -4 -26 16
-102 -190 -102 -278 0 -60 25 -116 60 -133 57 -29 154 -6 180 43 13 22 11 27
-20 59 -25 26 -33 43 -32 67 2 57 6 77 15 71 4 -2 13 0 20 5 49 38 131 8 173
-64 66 -112 16 -240 -104 -265 -110 -22 -145 -98 -77 -166 34 -34 38 -35 86
-30 56 7 135 47 131 66 -1 7 2 10 6 7 14 -8 45 31 36 45 -4 8 -3 10 5 5 21
-13 54 81 59 168 8 142 -27 238 -121 328 -32 31 -44 48 -34 48 33 0 133 -56
177 -99 25 -25 47 -44 50 -44 3 1 6 -6 7 -15 2 -31 68 -213 75 -207 4 4 4 -2
2 -12 -8 -30 54 -103 111 -132 45 -24 60 -26 165 -25 99 0 128 5 209 31 l94
30 -39 7 c-52 10 -127 43 -192 83 -29 19 -58 31 -64 27 -6 -4 -8 -3 -5 3 8 12
-63 70 -78 65 -5 -2 -7 0 -3 4 9 8 -63 90 -75 86 -5 -1 -6 1 -3 6 3 5 -24 49
-59 98 -35 49 -61 92 -59 96 3 4 44 -23 91 -62 48 -38 90 -67 95 -64 5 3 7 1
6 -3 -4 -14 92 -94 103 -87 5 3 8 1 7 -4 -4 -15 81 -74 94 -66 6 4 8 3 5 -4
-10 -15 166 -97 248 -116 134 -30 190 -36 328 -36 289 0 506 78 682 245 47 46
168 185 160 185 -4 0 3 9 16 20 44 36 9 20 -46 -21 -30 -23 -52 -46 -48 -52 3
-6 1 -7 -5 -3 -7 4 -38 -11 -69 -32 -207 -140 -376 -198 -616 -209 -134 -7
-246 6 -376 44 -101 29 -248 100 -321 155 -29 22 -60 41 -67 42 -7 1 -12 5
-11 8 6 12 -46 58 -60 53 -7 -2 -10 -1 -7 5 3 5 -4 18 -17 29 -36 34 -14 34
52 1 34 -17 69 -29 77 -26 8 3 12 2 9 -2 -3 -5 30 -24 72 -42 42 -18 102 -44
132 -58 30 -13 107 -38 170 -55 109 -30 125 -31 305 -31 183 -1 195 0 320 33
72 18 175 51 229 72 123 49 257 120 249 133 -3 5 -1 6 4 3 14 -9 189 117 186
132 -2 6 1 10 6 8 16 -4 93 65 87 80 -3 8 -2 12 3 8 13 -7 68 59 114 136 102
173 115 398 32 585 -31 70 -103 166 -118 157 -5 -3 -7 -1 -4 4 4 6 -2 18 -13
28 -11 10 -20 14 -20 9 0 -5 -7 1 -15 14 -21 29 -101 75 -116 66 -7 -4 -9 -3
-5 4 7 11 -49 35 -147 62 l-62 17 -6 99 c-7 100 -26 174 -59 229 -30 49 -107
118 -121 110 -7 -5 -10 -4 -6 2 9 14 -57 42 -122 52 -172 27 -340 -52 -447
-210 -54 -79 -65 -74 -34 15 11 32 17 63 13 70 -3 6 -3 8 1 4 11 -9 79 92 79
117 -1 11 1 15 4 8 3 -8 26 4 64 32 70 52 139 76 234 85 l70 6 -49 22 c-70 32
-119 41 -214 42 -79 0 -206 -22 -244 -42 -13 -6 -18 -5 -18 4 0 19 174 76 271
90 149 21 274 -13 401 -109 37 -28 70 -48 74 -45 4 4 4 2 1 -4 -7 -12 16 -38
25 -28 3 3 5 -3 5 -13 -1 -10 3 -17 9 -16 6 1 11 -3 11 -10 0 -7 15 -37 34
-67 18 -30 42 -77 51 -105 l17 -50 1 66 c0 111 -40 287 -62 273 -7 -4 -8 -2
-4 4 10 17 -26 81 -79 140 -54 59 -172 134 -215 136 -15 1 -26 4 -24 8 6 9
-85 27 -180 34 -140 11 -315 -25 -474 -97 -42 -19 -61 -32 -56 -40 4 -8 3 -9
-4 -5 -13 8 -47 -8 -79 -37 -19 -17 -23 -18 -23 -4 0 9 5 19 10 22 6 4 7 11 4
17 -4 7 -2 8 5 4 7 -5 35 14 71 47 79 74 158 120 271 159 86 30 104 32 219 32
139 1 184 -10 302 -71 79 -41 187 -149 237 -236 23 -40 37 -55 46 -50 33 19
115 106 109 115 -4 6 -2 8 3 5 14 -9 115 101 107 115 -4 7 -2 8 4 4 13 -8 35
28 24 39 -4 5 -2 5 5 1 14 -7 117 142 169 246 45 89 90 203 113 287 l19 67
-57 -19 c-75 -26 -167 -19 -241 16 -29 14 -59 23 -64 20 -6 -3 -8 -3 -4 2 9 9
-42 51 -57 47 -5 -2 -7 0 -3 4 4 4 3 13 -3 20 -8 10 -26 -7 -76 -74 -36 -48
-66 -92 -66 -99 0 -7 -3 -10 -7 -8 -4 2 -29 -17 -56 -42 -27 -25 -59 -52 -71
-60 -13 -8 -20 -20 -16 -26 3 -5 1 -7 -4 -4 -6 4 -33 -11 -61 -33 -46 -37 -55
-40 -110 -40 -52 0 -73 -7 -181 -60 -67 -33 -127 -60 -132 -60 -6 0 6 23 26
51 31 43 34 53 23 67 -12 15 -11 16 4 4 14 -11 18 -10 27 5 18 35 104 73 163
73 30 0 60 -6 68 -12 8 -8 6 -1 -4 17 -10 17 -27 38 -38 48 -23 20 -88 23
-121 6 -33 -17 -67 -51 -61 -61 3 -5 0 -7 -7 -6 -6 2 -36 -35 -64 -82 -59 -96
-125 -169 -176 -195 -37 -19 -189 -75 -269 -99 -46 -14 -49 -14 -47 4 1 10 5
16 10 13 13 -8 67 48 60 61 -3 6 -3 8 2 4 5 -5 22 3 39 15 17 13 74 49 126 79
52 31 114 72 137 92 45 39 137 181 127 197 -3 5 -1 8 3 7 5 -2 24 11 42 29 40
40 87 51 131 28 17 -9 34 -14 37 -11 12 11 -127 273 -183 346 -79 103 -215
242 -232 235 -7 -2 -11 -1 -8 4 7 11 -84 81 -144 111 -56 29 -67 43 -75 102
-13 95 23 168 162 329 40 45 69 87 66 92 -3 6 -1 7 5 3 6 -4 30 21 57 59 40
55 49 77 61 147 8 45 19 99 25 121 6 21 8 46 5 54 -3 8 -2 12 2 9 4 -2 22 26
40 64 40 86 123 177 197 216 l56 30 -51 28 c-27 15 -55 24 -62 20 -6 -4 -8 -3
-5 3 8 12 -41 34 -134 59 -44 12 -100 18 -179 18 -98 0 -126 -4 -193 -27 -93
-32 -145 -64 -206 -126 -92 -92 -181 -259 -204 -382 -17 -89 -30 -72 -22 29
25 315 128 490 330 557 40 13 135 29 270 46 29 3 -119 28 -171 29 -33 0 -63 2
-66 5 -3 3 2 32 12 63 55 176 47 416 -21 623 -30 93 -99 230 -112 222 -6 -3
-7 -1 -3 5 7 12 -75 135 -126 189 -19 19 -38 30 -49 28 -11 -2 -17 0 -14 6 4
5 12 7 18 4 30 -15 -105 101 -169 145 -80 55 -112 72 -99 50 6 -9 4 -11 -4 -6
-7 5 -10 11 -7 14 17 16 -167 94 -274 115 -95 19 -320 28 -430 17z m419 -126
c96 -20 164 -46 231 -88 30 -19 59 -32 65 -29 5 4 7 2 2 -2 -9 -11 33 -56 45
-49 5 3 8 2 7 -3 -1 -4 8 -29 20 -56 15 -31 21 -62 19 -90 l-3 -42 -30 59
c-24 47 -38 63 -69 77 -22 10 -44 15 -48 13 -4 -3 -5 1 -3 9 9 23 -33 67 -65
67 -16 0 -32 -4 -35 -10 -10 -16 -25 -12 -25 7 0 22 -29 53 -49 53 -9 0 -27
-9 -40 -19 l-25 -19 -15 32 c-23 44 -58 47 -92 6 l-27 -31 -6 25 c-13 51 -71
58 -96 11 -17 -32 -22 -31 -48 5 -13 17 -30 30 -39 30 -20 0 -63 -38 -63 -57
0 -21 -14 -15 -25 10 -19 42 -95 31 -95 -14 0 -23 -13 -24 -30 -4 -7 8 -26 15
-42 15 -22 0 -33 -7 -46 -30 -18 -32 -27 -36 -37 -20 -3 6 -17 10 -31 10 -18
0 -33 -12 -56 -45 -18 -25 -40 -45 -50 -45 -23 0 -61 -37 -52 -52 4 -6 3 -8
-4 -4 -6 3 -18 -11 -29 -34 -24 -52 -46 -54 -37 -2 10 58 40 114 88 162 24 25
42 49 39 54 -4 5 -2 6 4 3 6 -4 41 9 79 27 179 87 481 117 713 70z m37 -218
c105 -22 222 -72 319 -135 22 -14 47 -26 55 -26 8 0 15 -5 15 -10 0 -19 67
-95 77 -89 7 4 8 2 4 -5 -4 -6 4 -32 18 -58 15 -25 24 -48 21 -51 -3 -3 -6 -3
-8 -1 -2 2 -20 28 -41 56 -43 60 -84 96 -99 86 -5 -3 -7 -1 -3 5 7 12 -82 69
-180 113 -38 17 -118 42 -178 57 -97 22 -134 25 -296 26 -194 0 -281 -13 -417
-64 -93 -35 -194 -90 -187 -102 4 -7 3 -8 -5 -4 -19 12 -118 -70 -168 -139
-12 -16 -24 -27 -28 -24 -6 7 27 71 53 101 8 9 11 23 6 30 -4 7 -4 10 1 6 4
-4 31 14 60 41 85 77 239 149 404 188 138 32 422 32 577 -1z m-218 -83 c34
-21 83 -56 109 -78 26 -22 52 -39 56 -37 5 1 6 -1 3 -6 -14 -22 22 -45 74 -48
72 -4 143 -22 218 -56 35 -15 69 -25 74 -21 7 3 8 1 4 -5 -4 -7 7 -18 26 -28
53 -27 130 -87 179 -140 102 -110 139 -215 140 -395 0 -135 -10 -189 -51 -267
-36 -71 -70 -121 -70 -104 0 6 -4 12 -9 12 -4 0 -11 -33 -15 -72 -7 -79 -26
-118 -26 -54 0 116 -38 253 -95 342 -78 122 -179 207 -310 259 -97 39 -228 41
-327 6 l-66 -24 -49 24 c-41 20 -63 23 -148 23 -85 0 -111 -5 -175 -28 -41
-16 -92 -40 -114 -54 -52 -33 -147 -122 -141 -133 3 -4 0 -11 -6 -15 -8 -4 -9
-3 -5 4 4 7 5 12 2 12 -2 0 -22 -29 -45 -64 -58 -93 -82 -166 -88 -274 -3 -51
-9 -95 -14 -97 -10 -7 -29 84 -29 139 0 96 34 201 95 291 14 20 22 41 19 47
-4 6 -3 8 3 5 11 -7 111 90 103 100 -3 3 3 7 13 9 10 1 26 9 35 17 58 51 233
107 332 107 60 0 147 -22 193 -49 25 -14 30 -14 40 -1 7 8 19 16 27 17 8 1 40
9 70 18 104 29 253 9 369 -50 29 -14 57 -23 64 -19 7 4 9 4 5 -1 -9 -9 9 -35
24 -35 6 0 4 8 -3 18 -13 15 -12 16 3 4 10 -8 16 -17 15 -21 -4 -12 106 -120
116 -114 6 3 7 1 3 -5 -3 -6 8 -31 25 -56 36 -54 89 -194 89 -236 0 -79 43 7
61 122 22 141 -1 229 -87 338 -75 95 -262 225 -295 204 -7 -4 -9 -3 -6 3 9 14
-95 44 -178 52 -66 6 -70 7 -70 31 0 25 1 25 81 24 97 -1 199 -30 301 -84 39
-21 75 -35 79 -32 4 4 4 2 1 -4 -4 -7 10 -23 31 -38 21 -14 60 -53 87 -85 27
-33 53 -57 57 -55 4 3 5 -1 2 -9 -3 -8 -1 -18 5 -22 6 -3 11 1 11 9 0 20 -21
66 -31 66 -4 0 -9 15 -11 33 -2 22 -10 35 -25 42 -14 6 -23 20 -25 40 -3 35
-36 46 -58 20 -21 -25 -28 -17 -23 25 5 35 3 41 -21 51 -20 10 -29 10 -38 1
-21 -21 -33 -13 -33 21 0 28 -4 32 -29 35 -16 2 -33 -1 -39 -7 -18 -18 -27
-13 -27 17 0 33 -8 45 -37 61 -32 16 -48 14 -81 -14 -34 -29 -42 -31 -42 -11
0 8 -11 27 -23 42 l-24 28 -32 -23 c-18 -13 -30 -29 -27 -37 3 -8 0 -11 -10
-7 -7 3 -23 24 -33 47 -26 54 -57 89 -72 80 -8 -4 -9 -3 -5 5 18 29 -125 107
-177 97 -76 -15 -207 -136 -222 -205 -3 -16 -13 -32 -21 -35 -8 -3 -13 -2 -9
3 9 16 -7 41 -37 57 -36 18 -52 9 -68 -42 l-11 -34 -26 30 c-42 51 -123 29
-123 -33 0 -34 -9 -38 -41 -22 -39 21 -59 10 -59 -31 0 -37 -6 -40 -46 -22
-23 11 -28 10 -40 -7 -8 -10 -14 -30 -14 -43 0 -20 -4 -23 -32 -20 -29 3 -33
0 -35 -22 0 -14 -1 -31 -2 -37 -1 -7 -12 -13 -26 -13 -26 0 -31 -16 -17 -52 6
-15 18 -8 70 42 35 33 100 80 145 104 93 50 252 96 334 96 52 0 53 0 53 -30 0
-29 -2 -30 -45 -30 -25 0 -74 -7 -109 -16 -77 -19 -252 -107 -248 -123 1 -7
-2 -9 -8 -6 -14 9 -52 -24 -43 -38 3 -6 1 -7 -5 -3 -16 9 -104 -84 -135 -143
-53 -99 -57 -215 -12 -359 13 -39 19 -74 15 -77 -12 -8 -55 52 -87 120 -25 55
-28 73 -31 201 -6 216 28 321 146 445 121 129 343 239 484 239 46 0 51 3 120
73 68 68 172 136 209 137 8 0 43 -17 77 -37z m3 -141 c87 -56 129 -126 129
-217 0 -68 -17 -110 -61 -155 -19 -18 -32 -39 -31 -44 2 -6 0 -8 -3 -4 -11 11
-76 -42 -68 -56 3 -6 3 -8 -2 -4 -4 4 -17 1 -28 -7 -18 -13 -24 -10 -70 30
-28 24 -55 41 -61 38 -6 -3 -8 -3 -5 1 3 3 -8 22 -26 40 -49 53 -70 103 -70
171 0 52 5 67 37 117 20 31 33 60 30 64 -4 4 -1 4 6 0 8 -5 21 -2 30 7 62 53
128 60 193 19z m280 -322 c24 -13 25 -46 1 -59 -25 -13 -40 -1 -48 37 -5 26
-3 32 10 32 10 0 26 -5 37 -10z m-681 -14 c0 -30 -13 -46 -36 -46 -18 0 -24 5
-24 23 0 30 7 37 37 37 13 0 23 -6 23 -14z m118 -25 c3 -19 0 -22 -25 -19 -23
2 -28 8 -28 29 -1 23 2 25 25 19 16 -4 26 -15 28 -29z m451 25 c13 -16 6 -42
-14 -50 -22 -8 -38 19 -25 43 13 24 23 26 39 7z m224 -24 c20 -22 6 -42 -30
-42 -17 0 -23 6 -23 23 0 41 25 50 53 19z m-898 -4 c14 -43 10 -51 -25 -52
-30 -1 -36 2 -35 19 0 29 13 45 36 45 11 0 22 -6 24 -12z m-81 -61 c16 -26
-14 -53 -43 -38 -26 14 -27 36 -3 50 21 13 32 10 46 -12z m1070 -5 c9 -15 -12
-34 -35 -30 -27 3 -38 36 -18 49 13 7 43 -3 53 -19z m-1164 -57 c15 -18 3 -57
-17 -53 -26 5 -39 34 -24 52 17 20 25 20 41 1z m1239 -3 c12 -22 -3 -42 -30
-42 -21 0 -29 19 -17 43 11 22 35 22 47 -1z m-1312 -74 c14 -31 6 -48 -23 -48
-26 0 -31 18 -14 51 14 25 25 24 37 -3z m1388 -12 c0 -10 -11 -26 -25 -34 -14
-9 -22 -12 -18 -7 4 4 3 14 -3 21 -17 21 -3 46 23 42 15 -2 23 -10 23 -22z
m-1450 -77 c4 -12 2 -26 -4 -32 -15 -15 -46 16 -38 37 9 23 34 20 42 -5z
m1512 5 c3 -8 -2 -23 -11 -32 -15 -15 -18 -15 -26 -2 -5 8 -10 23 -10 33 0 22
38 23 47 1z m-860 -47 c11 -1 19 -5 17 -9 -3 -4 10 -15 27 -24 31 -15 34 -15
88 13 48 24 67 28 141 28 125 0 194 -29 285 -120 105 -104 162 -239 180 -422
9 -85 6 -86 -98 -73 -112 15 -179 12 -207 -7 -63 -43 -93 -106 -104 -213 -6
-53 -5 -54 7 -21 20 52 49 69 111 69 62 -1 106 24 131 73 9 17 27 31 43 35 15
4 43 15 62 26 19 10 38 18 42 18 22 0 -2 -162 -43 -290 -30 -95 -104 -242
-138 -274 l-30 -28 -34 21 c-19 12 -42 33 -51 46 -9 14 -21 23 -27 20 -5 -4
-9 -3 -8 2 1 4 0 15 -1 23 -6 39 -20 -81 -26 -225 -6 -133 -4 -169 9 -216 18
-62 78 -156 97 -151 6 1 9 -2 6 -7 -8 -13 53 -63 67 -54 7 3 9 3 5 -2 -11 -12
13 -27 159 -99 70 -35 145 -76 166 -90 21 -15 43 -23 49 -20 6 4 8 3 5 -3 -8
-13 107 -126 118 -116 4 5 5 2 1 -5 -4 -7 2 -25 14 -42 12 -17 33 -58 48 -93
23 -54 26 -76 27 -172 0 -105 -1 -112 -32 -169 -18 -32 -30 -64 -26 -70 3 -6
2 -8 -2 -3 -11 9 -46 -23 -39 -35 3 -4 2 -7 -3 -6 -13 5 -63 -38 -55 -47 4 -5
2 -5 -4 -2 -5 3 -36 -7 -69 -24 -69 -35 -97 -39 -72 -11 10 10 14 22 10 26 -4
4 -1 5 7 2 19 -7 77 69 97 127 24 65 21 162 -6 224 -46 103 -144 168 -319 208
-187 44 -292 75 -359 105 -36 16 -70 27 -76 23 -6 -3 -7 -1 -3 5 4 7 -7 18
-26 28 -18 9 -48 30 -66 46 -18 15 -38 25 -44 22 -6 -4 -8 -3 -5 3 8 13 -17
36 -28 25 -5 -4 -5 -2 -2 4 4 7 -13 36 -36 65 -113 140 -157 275 -187 579 -10
98 -16 151 -19 169 -1 2 -14 -15 -31 -37 -16 -23 -44 -49 -62 -58 -31 -16 -32
-16 -54 9 -12 14 -24 25 -25 24 -2 -1 -3 -1 -2 1 1 2 -16 36 -37 75 -62 117
-130 344 -130 437 0 36 0 36 50 10 22 -11 49 -20 60 -20 13 0 27 -12 38 -32
34 -64 58 -78 133 -78 56 0 70 -3 82 -20 8 -11 17 -17 22 -12 5 4 5 2 2 -4 -4
-7 0 -25 8 -40 17 -34 18 -31 5 59 -13 87 -41 141 -88 170 -56 36 -82 38 -192
21 -134 -21 -135 -20 -120 99 27 217 106 362 252 460 79 53 150 63 315 44z
m-689 -24 c2 -26 -11 -43 -35 -43 -23 0 -15 50 10 60 12 5 22 9 22 9 0 1 2
-11 3 -26z m1587 -19 c0 -10 -8 -20 -18 -22 -22 -4 -35 27 -16 39 20 12 34 5
34 -17z m36 -47 c-6 -8 -8 -17 -4 -20 3 -4 0 -13 -7 -22 -10 -12 -16 -13 -27
-3 -13 10 -11 15 13 35 33 26 42 29 25 10z m-1667 -13 c9 -3 16 -15 16 -26 0
-28 -34 -19 -38 10 -4 24 -2 25 22 16z m-9 -94 c-7 -50 -18 -57 -30 -19 -11
31 -10 35 9 41 12 3 22 6 23 7 1 1 0 -13 -2 -29z m1683 -6 c-5 -28 -28 -29
-28 -1 0 13 3 27 7 30 10 11 25 -9 21 -29z m-134 -849 c4 -19 11 -37 17 -41 6
-3 9 1 7 9 -6 30 17 17 25 -13 4 -17 12 -28 17 -25 5 3 8 0 5 -7 -6 -17 32
-81 44 -73 5 3 13 0 17 -6 4 -8 3 -9 -4 -5 -7 4 -12 3 -12 -3 0 -15 79 -69
111 -76 46 -10 44 -24 -7 -46 -40 -18 -52 -20 -85 -10 -92 28 -148 117 -157
248 -3 54 -1 83 5 83 6 0 14 -16 17 -35z m-1427 -50 c-9 -92 -41 -168 -88
-209 -41 -35 -92 -51 -125 -40 -49 16 -74 27 -74 33 0 4 22 17 50 29 69 30
122 88 156 172 28 68 38 75 46 35 3 -14 7 -9 12 17 13 61 29 33 23 -37z m331
-191 c1 -15 8 -34 15 -42 9 -13 9 -14 0 -8 -10 5 -13 -4 -13 -36 0 -69 -21
-217 -36 -261 -31 -88 -81 -125 -196 -146 -40 -7 -46 -6 -43 8 5 19 142 327
173 386 25 50 80 125 90 125 4 0 9 -12 10 -26z m796 -22 c19 -27 48 -76 63
-110 19 -43 30 -58 36 -49 6 8 7 6 3 -6 -5 -16 25 -93 75 -190 30 -59 27 -69
-19 -53 -75 27 -123 57 -151 96 -22 31 -31 37 -42 27 -11 -10 -11 -9 -1 3 8
12 8 26 -3 58 -28 81 -32 272 -5 272 4 0 24 -22 44 -48z m-1171 -146 c-4 -6
-8 -14 -8 -18 0 -5 -4 -8 -10 -9 -18 -1 -46 -32 -41 -46 3 -7 0 -12 -6 -10 -7
1 -22 -23 -35 -53 -44 -106 -21 -220 51 -254 26 -12 36 -22 32 -33 -3 -8 -6
-18 -6 -23 0 -15 -44 -19 -75 -6 -69 29 -111 113 -102 203 10 92 57 166 149
233 21 15 34 30 30 34 -3 4 1 4 11 0 10 -3 14 -11 10 -18z m1585 -26 c9 7 9 7
2 -2 -6 -8 1 -23 25 -49 49 -54 74 -110 81 -176 5 -51 2 -65 -23 -113 -32 -61
-55 -71 -91 -40 l-24 20 25 30 c32 38 43 104 28 177 -12 61 -50 134 -81 156
-11 8 -17 17 -14 20 4 4 19 -2 34 -13 18 -13 31 -16 38 -10z m-1490 -765 c55
-197 156 -450 174 -438 7 3 8 1 4 -6 -4 -6 4 -32 19 -56 23 -40 30 -45 60 -45
28 0 35 -4 35 -19 0 -39 -101 -51 -131 -15 -6 8 -16 11 -22 7 -5 -3 -7 -1 -3
5 3 6 -7 30 -23 54 -67 99 -182 418 -201 557 -12 87 -8 126 18 176 l15 30 13
-70 c6 -38 26 -119 42 -180z m-640 203 c32 -31 31 -100 -2 -133 -13 -13 -22
-25 -20 -27 10 -11 -79 2 -92 13 -20 17 -44 63 -44 87 0 24 36 71 64 82 28 12
66 3 94 -22z m2681 17 c16 -8 36 -30 45 -49 14 -31 15 -39 3 -68 -17 -41 -33
-53 -75 -62 -28 -5 -38 -1 -62 23 -40 39 -47 73 -23 113 17 29 54 57 76 58 4
0 21 -7 36 -15z m-2021 -22 c-5 -25 -28 -28 -28 -4 0 12 6 21 16 21 9 0 14 -7
12 -17z m135 -19 c16 -32 20 -34 35 -22 15 12 16 11 4 -4 -12 -15 -9 -23 24
-64 91 -110 252 -229 285 -208 7 4 9 3 6 -3 -4 -6 12 -16 39 -23 44 -13 207
-9 293 7 52 9 30 -14 -45 -47 -59 -27 -109 -36 -98 -18 3 4 -7 13 -21 18 -19
7 -34 6 -55 -5 -37 -19 -76 -19 -130 0 -23 8 -47 12 -54 8 -6 -3 -8 -3 -4 2 4
4 -20 24 -53 44 -101 59 -212 199 -245 307 -16 53 -4 58 19 8z m52 16 c3 -5 1
-10 -4 -10 -6 0 -11 5 -11 10 0 6 2 10 4 10 3 0 8 -4 11 -10z m49 -63 c15 -24
-3 -35 -20 -13 -8 11 -14 24 -14 29 0 13 22 3 34 -16z m-216 -10 c2 -12 -3
-17 -17 -17 -12 0 -21 6 -21 13 0 31 32 34 38 4z m12 -74 c0 -28 -35 -9 -36
20 -1 26 0 27 17 11 11 -10 19 -23 19 -31z m273 15 c20 -18 37 -39 37 -45 0
-22 -27 -14 -44 12 -9 14 -22 23 -28 19 -7 -4 -8 -3 -4 4 4 7 2 12 -3 12 -6 0
-11 7 -11 15 0 22 11 19 53 -17z m-591 -19 c45 -60 44 -255 -3 -461 -30 -134
-37 -222 -27 -311 l10 -78 -31 -35 c-27 -30 -61 -93 -61 -113 0 -3 11 11 25
31 44 66 99 88 157 64 15 -7 15 -2 -3 55 -54 174 -22 367 65 390 15 4 26 6 23
3 -3 -3 3 -25 14 -49 27 -62 42 -222 29 -331 -29 -260 -141 -427 -321 -480
-71 -21 -179 -15 -235 14 -23 12 -43 20 -45 19 -2 -1 -3 0 -2 2 2 2 -11 19
-27 38 -71 80 -95 171 -87 322 7 117 24 205 90 451 47 178 68 230 94 230 46 0
53 -61 24 -225 -11 -61 -22 -135 -25 -165 l-5 -55 25 74 c34 101 62 254 73
394 7 89 13 123 27 138 41 46 93 2 101 -88 4 -50 -33 -310 -64 -443 -4 -17 -2
-22 4 -15 6 6 25 66 42 135 26 101 34 158 42 309 6 103 15 192 21 199 16 19
48 11 70 -19z m-595 4 c40 -27 56 -73 41 -127 -10 -40 -9 -51 16 -120 16 -42
26 -79 24 -82 -3 -2 -33 34 -68 82 -35 48 -84 101 -111 121 -53 38 -59 55 -34
103 22 42 86 53 132 23z m3132 3 c30 -16 54 -60 46 -85 -3 -9 -21 -27 -40 -40
-39 -26 -170 -235 -158 -254 3 -6 1 -7 -5 -3 -6 4 -21 -3 -33 -15 -28 -28 -81
-49 -123 -49 -26 0 -44 9 -70 34 -39 36 -48 63 -18 51 47 -18 109 -17 148 3
74 37 145 163 124 217 -38 101 40 187 129 141z m-2201 -74 c4 -26 -22 -31 -32
-6 -10 26 -7 36 12 32 9 -2 18 -13 20 -26z m364 8 c-12 -35 -24 -41 -39 -20
-8 11 -20 17 -26 13 -7 -4 -7 0 1 10 18 21 72 19 64 -3z m-200 -36 c18 -20 37
-33 45 -30 8 3 12 2 8 -3 -12 -21 151 -125 181 -115 14 4 15 3 5 -4 -9 -7 6
-17 60 -37 41 -15 78 -32 83 -36 13 -12 63 -11 71 0 3 5 29 17 58 26 28 10 97
39 151 66 55 27 106 49 113 49 26 0 12 -33 -31 -76 -23 -24 -41 -46 -40 -49 2
-3 1 -3 -2 -1 -3 3 -27 -9 -52 -25 -130 -83 -275 -89 -416 -19 -32 16 -63 27
-69 23 -5 -3 -7 -1 -3 5 8 13 -33 43 -48 35 -6 -3 -8 -3 -4 2 5 5 -14 32 -42
60 -47 50 -110 140 -110 157 0 15 11 8 42 -28z m271 1 c8 -8 17 -12 20 -9 3 3
8 0 13 -7 4 -8 3 -10 -4 -5 -7 4 -12 1 -12 -8 0 -22 -33 -20 -53 2 -13 14 -14
21 -5 30 16 16 23 15 41 -3z m-1195 -29 c8 -9 20 -86 12 -81 -4 3 -13 -2 -20
-10 -7 -8 -27 -15 -45 -15 -27 0 -35 5 -45 29 -10 25 -9 33 7 55 10 14 22 26
26 26 5 0 6 4 2 9 -5 10 52 -3 63 -13z m2775 -2 c-2 -7 0 -15 6 -19 17 -10 13
-56 -6 -77 -23 -25 -45 -23 -76 10 -31 32 -33 49 -11 80 12 18 24 22 53 20 24
-2 37 -7 34 -14z m-1993 -5 c0 -5 5 -7 11 -4 6 4 5 -2 -3 -14 -16 -26 -34 -27
-48 -2 -14 28 -13 31 15 31 14 0 25 -5 25 -11z m509 -3 c9 -10 7 -17 -5 -27
-14 -11 -18 -10 -30 5 -23 32 10 52 35 22z m65 8 c24 -9 21 -54 -3 -54 -20 0
-37 32 -26 50 7 12 8 12 29 4z m93 -21 c13 -19 12 -20 -12 -15 -29 5 -39 17
-30 33 9 14 26 7 42 -18z m1373 11 c0 -8 -19 -13 -24 -6 -3 5 1 9 9 9 8 0 15
-2 15 -3z m-1947 -86 c51 -91 158 -239 168 -232 5 3 9 2 8 -3 -1 -4 2 -17 6
-27 6 -14 3 -23 -10 -33 -28 -19 -40 -11 -43 30 -2 28 -8 36 -24 39 -14 2 -22
11 -23 25 -1 13 -9 31 -17 40 -18 21 -108 198 -108 213 0 20 9 9 43 -52z m-58
10 c0 -18 -4 -36 -9 -40 -18 -12 -36 4 -36 32 0 22 6 30 23 33 12 2 22 5 22 6
0 0 0 -14 0 -31z m1075 -19 c0 -23 -13 -25 -31 -3 -10 13 -10 17 1 24 18 11
30 3 30 -21z m765 21 c4 -6 10 -8 14 -6 13 8 17 -51 6 -78 -7 -15 -5 -17 6
-11 8 4 11 4 7 0 -17 -18 -63 -14 -85 7 -28 26 -29 52 -3 78 22 22 45 26 55
10z m-694 -26 c28 -34 8 -146 -47 -257 -38 -76 -39 -81 -22 -71 7 5 8 3 4 -5
-5 -7 -10 -10 -14 -7 -3 3 -25 -12 -48 -34 -48 -44 -79 -50 -114 -22 -28 23
-19 42 19 42 41 0 68 36 107 141 71 192 86 229 94 229 4 0 14 -7 21 -16z
m-1123 -55 c2 -24 -1 -30 -15 -27 -25 5 -29 45 -6 51 10 3 18 5 18 6 1 0 2
-13 3 -30z m1033 -11 c4 -15 4 -27 1 -26 -24 3 -29 -5 -25 -36 5 -36 -13 -58
-28 -35 -13 21 -11 49 5 49 10 0 12 11 9 41 -4 35 -3 40 13 37 10 -1 21 -15
25 -30z m-96 2 c-4 -12 -21 -51 -38 -88 -17 -37 -30 -71 -29 -75 1 -4 -7 -3
-18 3 -23 12 -25 7 -9 -22 16 -30 -10 -55 -40 -39 -11 7 -21 16 -21 22 0 11
148 219 157 219 2 0 1 -9 -2 -20z m-898 -66 c3 -8 -1 -22 -9 -30 -12 -12 -17
-12 -33 -1 -23 17 -14 47 15 47 11 0 23 -7 27 -16z m931 -66 c13 -13 17 -58 5
-58 -15 0 -51 43 -46 56 6 17 25 18 41 2z m-899 -16 c9 -16 6 -19 -23 -19 -27
0 -32 4 -28 19 2 10 13 18 23 18 10 0 23 -8 28 -18z m15 -58 c23 -9 20 -44 -3
-44 -23 0 -35 15 -27 35 6 17 8 17 30 9z m864 -18 c2 -10 -1 -23 -7 -29 -16
-16 -44 14 -35 37 8 22 38 17 42 -8z m-680 -40 c-4 -27 -38 -33 -54 -11 -11
14 -10 22 3 41 15 24 17 24 35 7 10 -9 18 -26 16 -37z m517 24 c11 -49 -11
-64 -49 -35 -18 14 -18 16 -3 33 10 10 15 21 12 23 -2 3 4 5 15 6 13 1 21 -7
25 -27z m-246 -16 c24 -30 27 -64 9 -83 -11 -11 -5 -13 31 -8 27 3 57 17 81
36 47 37 67 39 82 6 14 -30 -7 -66 -55 -95 -55 -34 -90 -35 -135 -5 -44 29
-67 28 -111 -6 -47 -37 -123 -14 -171 53 l-31 43 21 17 c29 23 31 23 75 -12
21 -17 49 -33 62 -35 12 -3 35 -8 50 -11 27 -5 27 -5 10 14 -12 13 -17 32 -15
60 2 22 5 39 8 37 3 -2 12 0 20 6 26 15 48 10 69 -17z m-358 -127 c45 -87 158
-161 218 -142 10 3 32 -6 51 -20 41 -30 53 -31 88 -6 15 11 51 22 81 26 30 3
71 15 91 25 44 23 95 81 112 128 27 72 62 8 39 -70 -25 -82 -92 -131 -183
-132 l-57 -1 24 -25 c56 -59 69 -144 33 -220 -12 -25 -20 -49 -19 -53 1 -5 -3
-6 -8 -3 -5 4 -12 2 -16 -4 -3 -6 -25 -20 -47 -31 -88 -45 -214 -6 -258 80
-41 81 -36 152 16 222 l25 34 -68 8 c-37 4 -76 8 -85 9 -9 1 -15 4 -13 7 3 2
-9 19 -26 39 -36 40 -47 68 -53 125 -4 37 -1 43 15 44 13 1 26 -11 40 -40z
m-75 -65 c9 -43 25 -80 50 -114 34 -49 35 -52 18 -65 -28 -20 -54 -16 -83 16
-31 34 -47 80 -57 169 l-7 63 33 -3 c32 -3 34 -5 46 -66z m856 51 c9 -46 -11
-137 -42 -186 l-31 -50 27 -50 c37 -68 54 -139 54 -227 -1 -131 -35 -225 -114
-316 -25 -28 -42 -55 -38 -59 4 -3 2 -5 -4 -3 -7 2 -36 -11 -65 -29 -147 -88
-371 -83 -512 11 -63 42 -129 112 -157 166 -77 152 -70 381 16 498 1 2 18 -2
38 -9 28 -10 41 -10 62 0 15 6 29 10 31 7 3 -2 -2 -37 -11 -76 -9 -40 -14 -88
-11 -108 10 -60 36 -123 47 -116 7 4 8 2 4 -5 -10 -15 13 -43 27 -34 5 3 7 1
3 -5 -9 -15 60 -69 113 -87 150 -51 328 31 376 174 18 54 17 167 -1 230 -6 22
-5 23 24 16 17 -3 39 -2 49 4 20 11 22 9 -33 26 -12 4 -9 12 15 42 33 41 54
94 66 161 6 38 10 42 35 42 19 0 30 -6 32 -17z m-441 -43 c21 -12 25 -41 9
-71 -12 -21 -40 -25 -58 -7 -24 24 -9 88 21 88 4 0 17 -5 28 -10z m606 -317
c22 -43 48 -104 57 -135 10 -32 22 -58 26 -58 5 0 10 -30 12 -67 l3 -68 43
-20 c23 -11 42 -23 42 -27 0 -4 -15 -14 -34 -22 -32 -13 -56 -41 -56 -64 0 -6
20 -22 45 -36 51 -30 56 -43 20 -52 -14 -3 -23 -10 -20 -14 3 -5 0 -12 -6 -16
-8 -4 -9 -3 -5 4 9 15 1 15 -25 2 -29 -16 -23 -34 27 -75 35 -29 43 -40 32
-46 -25 -14 -65 -18 -102 -9 -35 8 -36 7 -36 -22 0 -21 11 -41 36 -66 26 -26
32 -37 22 -43 -19 -13 -44 -11 -85 6 -49 20 -53 19 -53 -14 0 -37 10 -62 21
-55 5 3 6 -1 3 -9 -3 -8 2 -20 11 -27 23 -19 18 -30 -15 -30 -19 0 -42 11 -65
32 -29 25 -38 29 -45 18 -5 -9 -4 -20 3 -29 10 -12 9 -13 -2 -7 -11 7 -12 -1
-7 -48 4 -31 4 -56 -1 -56 -17 0 -72 40 -83 59 -6 12 -15 21 -20 21 -11 0 -23
-54 -22 -107 1 -36 -1 -41 -16 -36 -9 3 -29 17 -43 30 -14 13 -28 21 -31 17
-3 -3 -9 0 -14 7 -5 8 -3 10 6 4 8 -5 11 -3 8 5 -5 17 -28 26 -28 11 0 -20
-42 -121 -50 -121 -13 0 -71 93 -68 109 2 8 49 29 113 51 61 20 140 56 177 79
62 39 215 187 205 198 -3 2 3 13 13 23 38 38 63 146 67 285 4 114 1 142 -20
225 -37 144 -122 311 -149 294 -7 -4 -8 -2 -4 5 4 6 -6 27 -23 48 -55 67 -32
60 33 -9 38 -41 80 -99 103 -145z m-2207 169 c0 -5 -48 -28 -107 -51 -59 -23
-133 -60 -164 -80 -52 -35 -57 -36 -55 -17 1 11 6 22 10 23 15 4 81 67 78 76
-1 5 2 6 7 2 6 -3 25 2 43 12 18 10 47 23 63 30 35 13 125 17 125 5z m-606
-73 c-3 -5 -10 -7 -15 -3 -5 3 -7 10 -3 15 3 5 10 7 15 3 5 -3 7 -10 3 -15z
m631 -71 c-8 -92 6 -188 35 -254 23 -53 89 -127 107 -120 8 3 11 1 8 -4 -4 -6
13 -19 37 -30 79 -36 211 -20 292 35 43 29 42 29 50 10 3 -8 0 -14 -7 -12 -7
1 -11 -4 -9 -11 1 -6 -1 -11 -6 -10 -4 2 -28 -14 -53 -34 -116 -95 -250 -119
-361 -65 -68 33 -131 99 -166 175 -36 77 -38 201 -4 277 23 49 70 125 79 125
3 0 2 -37 -2 -82z m1005 -71 c-7 -18 -14 -82 -17 -142 -5 -91 -2 -125 15 -193
23 -90 82 -209 101 -204 7 1 10 -2 6 -8 -15 -24 133 -168 157 -153 6 3 8 1 5
-4 -7 -12 83 -55 153 -73 66 -18 206 -15 276 5 235 68 399 277 420 538 11 141
27 105 22 -50 -5 -148 -17 -195 -74 -285 -15 -24 -27 -48 -27 -55 0 -7 -3 -10
-7 -8 -12 8 -42 -33 -34 -46 4 -7 3 -10 -3 -6 -5 3 -32 -12 -59 -35 -65 -54
-169 -103 -262 -124 -178 -40 -378 15 -543 148 -20 17 -92 114 -116 158 -49
87 -79 245 -69 360 9 112 53 270 63 227 3 -10 -1 -32 -7 -50z m387 -102 c0 -8
-4 -12 -9 -9 -5 3 -6 10 -3 15 9 13 12 11 12 -6z m2007 -112 c27 -10 70 -37
96 -60 26 -23 51 -39 55 -35 5 4 5 2 2 -4 -4 -7 7 -41 23 -76 23 -48 36 -104
56 -228 14 -91 23 -179 20 -196 -9 -45 -48 -78 -83 -70 -15 4 -33 7 -40 8 -7
1 -10 5 -7 9 3 5 -2 19 -10 31 -9 13 -25 64 -37 113 -11 50 -22 91 -22 92 -1
1 -2 -62 -2 -139 l0 -141 -44 -4 c-35 -3 -48 0 -67 18 -28 26 -50 93 -60 180
-10 90 -24 52 -24 -68 0 -98 -1 -102 -26 -122 -34 -26 -54 -26 -87 0 -31 24
-57 101 -58 173 0 28 -4 60 -8 71 -10 24 -21 -59 -21 -157 0 -61 -2 -69 -26
-84 -34 -23 -72 -10 -96 33 -69 116 9 446 134 572 62 62 148 101 223 101 33 0
82 -8 109 -17z m-327 -48 c0 -8 -4 -12 -9 -9 -5 3 -6 10 -3 15 9 13 12 11 12
-6z m-2229 -88 c2 -96 29 -202 68 -277 38 -73 130 -184 145 -174 5 3 8 0 7 -7
-4 -16 107 -91 187 -128 33 -15 90 -34 128 -41 61 -12 67 -16 61 -34 -15 -48
-54 -113 -68 -113 -8 0 -13 4 -10 8 6 11 -28 79 -37 74 -3 -3 -7 1 -6 8 2 51
-3 52 -42 9 -21 -23 -43 -42 -49 -42 -5 0 -18 32 -27 70 -9 39 -21 70 -26 70
-4 0 -15 -10 -23 -21 -14 -20 -64 -59 -77 -59 -3 0 -4 30 -3 67 2 37 1 71 -2
75 -3 4 -20 -3 -39 -17 -32 -25 -105 -46 -105 -30 0 4 11 20 25 37 17 20 25
42 25 68 l0 38 -47 -14 c-40 -12 -103 -11 -103 1 0 2 16 19 35 38 25 25 35 44
35 65 l0 30 -77 -5 -78 -5 43 42 c23 23 40 45 37 50 -3 5 0 12 6 16 8 5 9 3 4
-7 -6 -11 -5 -12 6 -1 19 17 -4 38 -61 55 l-45 13 48 34 c26 19 47 41 47 49 0
21 -40 61 -62 61 -32 0 -19 27 20 43 56 23 57 22 60 -46z m-769 -376 c102 -23
232 -71 329 -120 79 -40 172 -99 172 -110 0 -4 -33 -2 -72 5 -100 18 -287 17
-394 -1 -166 -29 -363 -107 -520 -206 -33 -22 -64 -39 -68 -39 -3 0 -6 33 -6
73 -1 93 -21 137 -93 204 -61 55 -65 64 -43 82 8 7 13 21 11 32 -2 11 0 17 6
14 5 -4 7 -11 3 -16 -3 -5 16 4 42 20 48 31 137 64 215 81 76 16 313 5 418
-19z m2756 -54 c6 -59 4 -80 -9 -105 -19 -36 -74 -68 -126 -73 -35 -4 -35 -3
-33 33 1 21 10 52 19 70 18 34 121 148 135 148 4 0 10 -33 14 -73z m1053 -185
c48 -34 75 -95 70 -152 -9 -90 -72 -144 -166 -143 -60 0 -93 19 -129 73 -47
69 -19 187 53 226 18 10 31 21 29 24 -2 3 22 3 53 0 37 -3 69 -14 90 -28z
m-4510 9 c74 -38 107 -157 63 -225 -11 -17 -17 -34 -14 -39 3 -6 2 -7 -4 -4
-5 3 -22 -3 -39 -14 -35 -23 -103 -25 -144 -4 -78 40 -111 146 -68 220 47 80
128 106 206 66z m2216 -17 c17 -17 21 -51 7 -73 -5 -7 -26 -16 -48 -20 -42 -8
-42 -8 -45 63 -1 44 53 64 86 30z m-1010 -37 c66 -17 226 -79 226 -88 0 -3
-33 -9 -73 -12 -100 -9 -221 -46 -406 -124 -290 -122 -429 -156 -641 -157
-123 0 -233 14 -269 34 -10 5 6 19 53 45 36 20 66 39 66 41 0 3 -5 2 -12 -2
-7 -4 -8 -3 -4 5 4 6 12 9 17 6 5 -4 57 23 117 58 222 132 312 170 478 202 97
18 360 13 448 -8z m2386 -112 c5 3 7 0 4 -8 -3 -9 11 -28 38 -50 71 -57 106
-71 171 -68 92 4 139 3 188 -4 25 -4 63 -2 84 4 38 10 39 9 97 -45 67 -61 155
-110 217 -120 23 -4 43 -10 46 -14 2 -3 -28 -15 -66 -25 -117 -30 -239 -12
-340 51 -20 13 -40 20 -45 16 -4 -4 -4 -2 -1 4 4 6 -2 19 -13 29 -20 18 -20
18 -11 -11 20 -62 21 -94 5 -94 -29 0 -164 50 -206 76 l-42 27 32 -41 c115
-144 276 -224 485 -239 48 -3 87 -10 87 -14 0 -12 -88 -24 -170 -23 -82 1
-168 22 -242 60 -27 14 -54 22 -61 18 -7 -4 -9 -4 -5 1 5 5 -9 19 -30 33 -20
14 -60 44 -88 68 -28 24 -54 41 -58 39 -3 -3 -4 -2 -1 2 8 10 -26 43 -38 36
-6 -3 -7 -1 -3 5 10 16 -138 167 -154 157 -8 -5 -11 -4 -6 3 8 13 -33 43 -121
87 -39 19 -61 36 -53 38 8 3 41 10 73 17 32 6 81 24 110 39 l52 28 28 -44 c15
-24 32 -41 37 -38z m-1448 9 c24 -12 36 -14 55 -5 30 14 33 14 33 1 0 -6 -12
-15 -27 -21 -29 -11 -73 2 -94 27 -15 18 -5 18 33 -2z m-524 -55 c39 -12 72
-25 72 -29 0 -3 -24 -12 -52 -19 -90 -23 -211 -85 -369 -191 -83 -56 -189
-122 -234 -145 -46 -24 -82 -45 -80 -47 2 -2 -6 -4 -18 -5 -12 0 -53 -11 -92
-22 -152 -47 -364 -63 -518 -40 -109 15 -110 20 -12 35 232 35 373 99 656 296
199 139 322 186 484 187 64 1 111 -5 163 -20z m1533 -19 c34 -12 72 -28 85
-36 13 -9 29 -12 35 -8 7 4 9 3 5 -4 -3 -6 13 -24 38 -42 24 -18 63 -54 86
-81 23 -27 47 -46 52 -42 6 3 8 1 4 -5 -8 -14 43 -74 56 -65 7 3 8 1 4 -5 -4
-7 13 -33 40 -62 26 -28 45 -52 43 -54 -11 -11 -256 97 -313 138 l-41 29 19
-29 c40 -61 78 -104 88 -98 6 4 8 3 5 -3 -14 -22 157 -155 278 -215 124 -62
284 -100 410 -97 44 1 82 -2 84 -7 5 -14 -147 -64 -230 -75 -186 -25 -394 53
-544 206 -21 22 -43 39 -48 37 -5 -1 -6 1 -3 6 18 30 -224 216 -255 196 -8 -4
-9 -3 -5 4 4 6 -5 17 -21 26 -63 33 -148 146 -126 166 15 14 133 -18 180 -50
l46 -32 -18 29 c-42 67 -101 110 -182 134 -24 7 -43 16 -43 20 0 4 19 14 43
22 61 22 157 21 228 -3z m-422 -62 c13 -11 39 -54 57 -95 19 -41 38 -71 44
-68 5 3 7 0 4 -8 -8 -23 88 -102 218 -178 64 -38 134 -86 154 -107 41 -41 84
-124 84 -161 0 -22 -8 -17 -68 41 -37 36 -91 77 -121 92 -170 86 -461 99 -698
30 -47 -13 -87 -23 -89 -21 -2 1 7 41 20 87 13 47 31 136 41 198 11 73 23 116
32 119 24 9 59 -6 73 -32 17 -31 30 -32 30 -2 0 32 35 84 72 107 46 28 117 27
147 -2z m-455 -6 c3 -5 -1 -9 -9 -9 -8 0 -12 4 -9 9 3 4 7 8 9 8 2 0 6 -4 9
-8z"/>
<path d="M4015 7037 c-2 -6 -6 -25 -8 -42 -5 -28 -4 -29 10 -10 30 40 33 53
17 59 -8 3 -16 0 -19 -7z"/>
<path d="M4863 7465 c-53 -23 -103 -100 -103 -160 0 -35 38 -107 52 -99 6 4 8
3 4 -4 -8 -13 54 -62 78 -62 27 0 71 27 100 60 61 74 55 166 -16 231 -45 42
-75 51 -115 34z m66 -59 c15 -16 23 -36 22 -58 -1 -51 -4 -68 -9 -63 -3 3 -13
-2 -22 -10 -22 -20 -47 -10 -65 26 -20 37 -19 58 5 97 24 38 39 40 69 8z"/>
<path d="M4883 6633 c-12 -68 -4 -108 19 -101 27 9 32 37 19 90 -21 82 -26 83
-38 11z"/>
<path d="M4788 6621 c-21 -40 -28 -70 -28 -110 0 -52 2 -57 49 -102 75 -72 79
-73 136 -34 72 48 87 68 93 124 3 40 -1 60 -24 108 l-28 58 -6 -65 c-6 -72
-20 -100 -61 -124 -25 -15 -29 -15 -44 0 -36 37 -50 71 -55 134 l-5 65 -27
-54z"/>
<path d="M4415 6381 c-35 -16 -124 -71 -114 -71 2 0 22 7 44 15 85 30 226 14
277 -31 9 -9 22 -13 29 -8 7 4 10 3 6 -3 -4 -6 2 -22 13 -34 l21 -24 -15 38
c-24 60 -53 94 -99 116 -53 26 -109 26 -162 2z"/>
<path d="M5220 6378 c-43 -22 -81 -68 -107 -129 -9 -21 -2 -17 35 20 29 28 63
51 88 59 51 15 146 16 197 1 22 -6 41 -9 43 -7 7 8 -81 58 -94 53 -7 -2 -11
-1 -8 4 18 29 -97 28 -154 -1z"/>
<path d="M4876 6291 c-24 -27 -17 -55 15 -59 39 -5 56 21 35 53 -20 30 -28 31
-50 6z"/>
<path d="M4846 6165 c11 -31 35 -55 55 -55 20 0 49 36 49 59 0 11 -5 8 -16 -7
-19 -28 -41 -28 -71 0 -22 21 -24 21 -17 3z"/>
<path d="M4874 6035 c-9 -23 3 -45 25 -45 23 0 35 28 20 46 -15 18 -38 18 -45
-1z"/>
<path d="M4870 5921 c0 -10 7 -24 16 -31 12 -11 18 -10 31 3 21 21 9 47 -22
47 -18 0 -25 -5 -25 -19z"/>
<path d="M4877 5834 c-13 -13 -7 -55 9 -61 24 -9 51 23 38 45 -12 19 -36 27
-47 16z"/>
<path d="M4870 5705 c0 -23 4 -26 28 -23 19 2 27 9 27 23 0 14 -8 21 -27 23
-24 3 -28 0 -28 -23z"/>
<path d="M4874 5615 c-9 -23 3 -45 25 -45 20 0 37 32 26 50 -9 15 -45 12 -51
-5z"/>
<path d="M4874 5515 c-9 -23 3 -45 25 -45 25 0 34 14 26 40 -7 23 -43 27 -51
5z"/>
<path d="M4886 5427 c-23 -17 -13 -57 14 -57 29 0 44 35 24 54 -19 19 -16 19
-38 3z"/>
<path d="M4873 5325 c-3 -9 2 -24 11 -34 11 -12 14 -27 10 -50 -6 -27 -4 -33
15 -38 18 -5 22 -12 19 -37 -2 -24 2 -33 19 -41 13 -5 23 -20 25 -35 2 -16 9
-25 20 -24 10 1 16 -1 15 -5 0 -3 5 -16 12 -29 10 -19 15 -21 27 -11 20 17 18
25 -21 68 -19 21 -35 47 -35 57 0 11 -7 28 -15 38 -8 11 -15 30 -15 43 0 13
-6 23 -14 23 -20 0 -26 23 -10 45 10 13 11 22 3 32 -15 18 -58 17 -66 -2z"/>
<path d="M5064 5005 c-9 -23 6 -37 32 -31 19 5 24 2 24 -13 0 -10 7 -24 15
-31 10 -9 15 -9 15 -1 0 6 7 11 15 11 8 0 15 -7 15 -15 0 -8 8 -15 18 -16 9 0
24 -2 32 -5 66 -18 62 -10 -15 29 -49 25 -98 54 -107 66 -21 25 -36 27 -44 6z"/>
<path d="M3512 4738 c-7 -7 -12 -24 -12 -38 0 -14 5 -31 12 -38 14 -14 62 -16
53 -2 -3 5 0 7 9 4 10 -4 17 2 22 20 12 48 -50 88 -84 54z"/>
<path d="M6217 4732 c-20 -22 -22 -53 -5 -70 21 -21 66 -14 84 13 15 23 15 27
0 50 -20 30 -56 33 -79 7z"/>
<path d="M4842 3625 c-27 -22 -32 -34 -32 -69 0 -76 73 -116 138 -76 43 27 56
61 38 103 -17 41 -36 57 -78 63 -27 5 -41 1 -66 -21z m85 -47 c11 -14 25 -64
16 -54 -4 3 -14 -1 -24 -10 -23 -21 -47 -12 -55 21 -11 43 38 75 63 43z"/>
<path d="M7068 2477 c-39 -40 -38 -89 1 -128 23 -22 39 -29 68 -29 46 1 68 16
87 61 40 96 -84 172 -156 96z m101 -21 c12 -14 22 -86 12 -83 -3 0 -16 -2 -28
-7 -35 -11 -63 9 -63 47 0 18 5 38 12 45 16 16 53 15 67 -2z"/>
<path d="M2596 2489 c-18 -14 -26 -28 -23 -40 3 -11 1 -17 -4 -13 -18 11 -9
-54 11 -79 41 -52 116 -42 152 20 50 85 -58 173 -136 112z m100 -44 c18 -28
11 -60 -17 -75 -41 -23 -84 34 -59 79 15 29 55 27 76 -4z"/>
<path d="M6563 6860 c-12 -5 -26 -17 -32 -27 -10 -20 -34 -143 -29 -148 2 -2
35 7 73 20 68 23 125 68 125 99 0 45 -83 79 -137 56z"/>
<path d="M6568 6629 c-32 -18 -41 -48 -24 -73 34 -53 116 -36 116 24 0 46 -51
73 -92 49z"/>
<path d="M6907 6581 c50 -101 41 -223 -27 -356 -22 -42 -37 -81 -34 -86 3 -5
0 -8 -6 -7 -6 2 -30 -33 -53 -77 -35 -67 -42 -91 -45 -152 -5 -87 9 -133 54
-179 33 -32 63 -47 48 -22 -4 7 -3 8 5 4 6 -4 9 -11 6 -16 -3 -4 9 -13 27 -19
70 -25 140 -7 194 50 l28 29 33 -31 c29 -29 34 -31 50 -18 16 13 17 12 5 -3
-12 -15 -9 -18 29 -28 43 -12 92 -7 135 12 13 6 21 15 18 19 -3 5 1 6 8 4 15
-6 49 28 72 74 22 42 20 139 -3 201 -11 28 -47 97 -80 153 -85 144 -103 201
-99 307 4 68 10 96 32 138 l27 53 -49 -25 c-27 -14 -60 -40 -75 -59 -38 -50
-67 -145 -67 -222 0 -73 18 -158 31 -149 5 3 6 -2 3 -10 -3 -8 15 -59 41 -113
57 -119 63 -150 40 -208 -20 -53 -31 -57 -40 -12 -4 17 -22 57 -40 88 -18 30
-42 80 -53 110 -16 41 -21 48 -21 28 -1 -15 -23 -70 -51 -124 -27 -54 -50
-109 -50 -122 0 -33 -20 -25 -44 17 -32 55 -25 102 37 237 68 148 80 188 80
278 2 120 -50 223 -134 265 -21 11 -42 20 -47 20 -5 0 2 -22 15 -49z m234
-727 c16 -20 3 -61 -23 -70 -28 -8 -49 19 -46 61 2 28 5 31 30 27 15 -2 33
-10 39 -18z"/>
<path d="M2594 6417 c-1 -100 -30 -168 -123 -296 -89 -123 -114 -180 -119
-271 -4 -88 14 -132 66 -167 75 -50 175 -36 252 33 21 19 42 34 48 34 6 0 20
-16 32 -35 12 -19 26 -33 31 -30 5 4 6 0 3 -8 -3 -8 16 -36 44 -65 44 -48 52
-52 93 -52 56 0 100 27 136 82 83 131 62 278 -73 518 -51 91 -75 160 -83 238
l-6 67 -14 -64 c-19 -83 -7 -143 58 -305 79 -195 88 -303 30 -365 -22 -23 -25
-23 -116 -9 -7 1 -10 5 -7 10 3 5 1 14 -4 21 -19 24 -21 65 -8 118 l14 53 -42
37 c-23 20 -48 48 -55 63 l-14 26 -11 -23 c-7 -12 -35 -40 -64 -61 l-53 -40 7
-52 c6 -48 4 -55 -19 -78 -33 -33 -40 -33 -71 4 -54 64 -44 136 44 328 56 122
70 180 60 244 -7 43 -29 128 -33 128 -1 0 -2 -37 -3 -83z m-139 -737 c3 -6 -1
-7 -9 -4 -18 7 -21 14 -7 14 6 0 13 -4 16 -10z m390 -70 c10 -11 16 -20 13
-20 -3 0 -13 9 -23 20 -10 11 -16 20 -13 20 3 0 13 -9 23 -20z"/>
<path d="M2730 6260 c-12 -23 -37 -63 -56 -90 -37 -52 -44 -99 -18 -121 14
-12 21 -9 48 24 17 20 36 37 42 37 7 0 24 -16 38 -35 29 -38 52 -38 67 2 9 25
-8 82 -35 113 -8 8 -25 37 -39 64 l-26 48 -21 -42z m41 -45 c3 2 5 -13 4 -33
0 -30 -4 -38 -22 -40 -27 -4 -38 25 -23 63 8 21 13 25 24 16 7 -6 15 -9 17 -6z"/>
<path d="M6575 5615 l-40 -13 37 -1 c88 -2 158 -59 158 -127 0 -61 -67 -109
-116 -83 -30 15 -58 64 -50 85 10 25 -3 15 -19 -16 -8 -16 -15 -53 -15 -82 0
-120 104 -189 228 -153 151 45 185 219 67 341 -30 31 -49 45 -60 40 -9 -3 -14
-2 -11 3 15 24 -113 28 -179 6z m250 -304 c3 -5 2 -12 -3 -15 -5 -3 -9 1 -9 9
0 17 3 19 12 6z"/>
<path d="M2560 5572 c-116 -57 -176 -100 -256 -184 -74 -78 -117 -139 -156
-225 -61 -136 -82 -278 -58 -404 12 -64 41 -125 57 -122 7 2 10 -4 7 -11 -7
-18 39 -43 93 -52 73 -11 284 46 251 68 -9 7 -7 8 7 4 23 -7 122 63 117 83 -1
7 1 10 6 7 14 -8 85 70 77 85 -5 7 -4 10 3 6 13 -9 53 61 81 143 37 106 47
214 31 333 -7 56 -15 139 -17 184 -5 73 -8 84 -29 98 -14 9 -30 13 -36 9 -6
-4 -8 -3 -5 3 8 13 -15 23 -51 23 -15 -1 -70 -22 -122 -48z m181 -112 c24 -14
24 -42 0 -64 -38 -34 -85 26 -49 62 15 15 24 15 49 2z m-122 -78 c39 -18 87
-80 102 -131 7 -26 6 -53 -3 -100 -15 -72 -38 -95 -38 -38 0 119 -113 247
-220 247 -46 0 -52 13 -12 28 62 25 110 23 171 -6z m-123 -201 c23 -10 45 -24
48 -30 4 -6 12 -11 17 -11 6 0 7 5 3 12 -4 7 -3 8 4 4 6 -4 9 -13 5 -21 -3 -8
-1 -15 5 -15 19 0 52 -85 52 -133 0 -64 -33 -146 -81 -201 -65 -74 -127 -95
-177 -60 -12 8 -26 13 -30 10 -4 -2 -9 3 -10 12 -1 9 -5 36 -8 60 -4 31 -2 49
10 67 9 14 14 31 10 37 -4 6 -3 8 3 5 6 -4 24 0 39 8 39 20 67 19 98 -6 19
-15 26 -30 27 -57 0 -30 2 -33 9 -17 13 31 11 97 -5 151 -16 54 -76 121 -96
108 -7 -4 -9 -3 -5 4 10 17 -62 35 -122 31 -29 -2 -52 -1 -52 3 0 6 64 39 100
51 34 12 117 6 156 -12z m75 -426 c11 6 11 5 2 -5 -12 -14 -33 -6 -33 13 0 8
3 7 9 -2 5 -8 14 -10 22 -6z"/>
<path d="M7074 5571 c-23 -10 -45 -24 -49 -31 -11 -18 -44 -213 -51 -305 -5
-58 -2 -104 10 -165 19 -90 84 -237 104 -233 6 2 9 -3 7 -10 -7 -16 74 -109
87 -101 6 4 8 3 5 -3 -8 -13 41 -55 55 -47 7 4 8 3 4 -4 -8 -14 60 -54 134
-78 75 -24 184 -24 233 0 24 12 36 24 33 32 -3 8 0 13 7 11 7 -1 11 6 11 15
-1 10 3 16 9 15 5 -1 18 21 28 48 23 65 25 215 3 302 -23 92 -59 178 -73 175
-7 -1 -10 2 -6 8 12 20 -98 176 -116 164 -5 -3 -8 -2 -7 3 9 31 -123 141 -232
192 -76 36 -135 40 -196 12z m40 -122 c17 -25 12 -45 -16 -60 -37 -20 -76 39
-46 69 18 18 45 14 62 -9z m257 -66 c5 -5 -14 -14 -49 -21 -44 -9 -70 -22
-102 -51 -23 -21 -40 -43 -36 -49 3 -6 1 -14 -5 -18 -8 -4 -9 -3 -5 4 4 7 4
12 1 12 -10 0 -43 -82 -50 -127 -4 -24 -10 -43 -15 -43 -14 0 -33 100 -26 142
4 22 14 54 23 72 10 17 16 35 15 39 -1 5 2 6 7 3 5 -3 14 1 22 10 19 23 50 37
94 44 44 6 112 -3 126 -17z m128 -206 c74 -30 76 -44 4 -39 -60 4 -108 -11
-149 -46 -32 -27 -57 -70 -48 -83 4 -7 3 -9 -3 -6 -14 9 -23 -26 -22 -88 0
-49 0 -49 14 -24 22 40 67 55 113 37 68 -26 100 -104 68 -167 -26 -49 -84 -63
-150 -36 -45 19 -118 114 -136 179 -55 196 120 351 309 273z m-194 -465 c-3
-3 -11 0 -18 7 -9 10 -8 11 6 5 10 -3 15 -9 12 -12z"/>
<path d="M4362 1772 c-18 -31 -242 -269 -242 -256 0 2 -28 -17 -62 -42 -170
-125 -387 -194 -611 -194 -254 0 -456 67 -690 231 -62 42 -117 81 -122 86 -40
33 -46 34 -21 3 16 -19 33 -34 38 -32 5 1 7 -2 4 -7 -8 -12 33 -63 45 -55 5 3
8 1 7 -4 -9 -30 208 -222 232 -207 6 4 9 1 8 -5 -4 -14 118 -79 194 -104 220
-71 563 -55 770 37 203 90 321 218 426 461 53 121 62 155 24 88z"/>
</g>
</svg>
